<mxfile host="65bd71144e">
    <diagram id="R7JGW48iA_OiMXYkvlov" name="第 1 页">
        <mxGraphModel dx="396" dy="433" grid="1" gridSize="10" guides="1" tooltips="1" connect="1" arrows="1" fold="1" page="1" pageScale="1" pageWidth="827" pageHeight="1169" math="0" shadow="0">
            <root>
                <mxCell id="0"/>
                <mxCell id="1" parent="0"/>
                <mxCell id="90" value="" style="ellipse;whiteSpace=wrap;html=1;fontColor=#0066CC;" vertex="1" parent="1">
                    <mxGeometry x="110" y="170" width="140" height="60" as="geometry"/>
                </mxCell>
                <mxCell id="87" value="" style="ellipse;whiteSpace=wrap;html=1;fontColor=#0066CC;" vertex="1" parent="1">
                    <mxGeometry x="60" y="240" width="230" height="90" as="geometry"/>
                </mxCell>
                <mxCell id="84" value="" style="ellipse;whiteSpace=wrap;html=1;fontColor=#0066CC;" vertex="1" parent="1">
                    <mxGeometry x="145" y="60" width="355" height="120" as="geometry"/>
                </mxCell>
                <mxCell id="81" value="" style="ellipse;whiteSpace=wrap;html=1;aspect=fixed;fontColor=#FFFFFF;" vertex="1" parent="1">
                    <mxGeometry x="330" y="190" width="140" height="140" as="geometry"/>
                </mxCell>
                <mxCell id="56" value="货币" style="text;html=1;align=center;verticalAlign=middle;resizable=0;points=[];autosize=1;strokeColor=none;fillColor=none;" vertex="1" parent="1">
                    <mxGeometry x="160" y="90" width="40" height="20" as="geometry"/>
                </mxCell>
                <mxCell id="57" value="应收账款/票据" style="text;html=1;align=center;verticalAlign=middle;resizable=0;points=[];autosize=1;strokeColor=none;fillColor=none;" vertex="1" parent="1">
                    <mxGeometry x="160" y="110" width="90" height="20" as="geometry"/>
                </mxCell>
                <mxCell id="59" value="存货" style="text;html=1;align=center;verticalAlign=middle;resizable=0;points=[];autosize=1;strokeColor=none;fillColor=none;" vertex="1" parent="1">
                    <mxGeometry x="160" y="130" width="40" height="20" as="geometry"/>
                </mxCell>
                <mxCell id="60" value="" style="endArrow=none;dashed=1;html=1;" edge="1" parent="1">
                    <mxGeometry width="50" height="50" relative="1" as="geometry">
                        <mxPoint x="120" y="200" as="sourcePoint"/>
                        <mxPoint x="320" y="200" as="targetPoint"/>
                    </mxGeometry>
                </mxCell>
                <mxCell id="62" value="其他应收款" style="text;html=1;align=center;verticalAlign=middle;resizable=0;points=[];autosize=1;strokeColor=none;fillColor=none;" vertex="1" parent="1">
                    <mxGeometry x="140" y="180" width="80" height="20" as="geometry"/>
                </mxCell>
                <mxCell id="63" value="流动" style="text;html=1;align=center;verticalAlign=middle;resizable=0;points=[];autosize=1;fontColor=#990000;fontStyle=1" vertex="1" parent="1">
                    <mxGeometry x="280" y="180" width="40" height="20" as="geometry"/>
                </mxCell>
                <mxCell id="64" value="" style="endArrow=none;html=1;" edge="1" parent="1">
                    <mxGeometry width="50" height="50" relative="1" as="geometry">
                        <mxPoint x="320" y="80" as="sourcePoint"/>
                        <mxPoint x="320" y="360" as="targetPoint"/>
                    </mxGeometry>
                </mxCell>
                <mxCell id="65" value="股权投资" style="text;html=1;align=center;verticalAlign=middle;resizable=0;points=[];autosize=1;strokeColor=none;fillColor=none;fontColor=#FFFFFF;" vertex="1" parent="1">
                    <mxGeometry x="145" y="210" width="60" height="20" as="geometry"/>
                </mxCell>
                <mxCell id="66" value="固定资产（中国的土地不算）" style="text;html=1;align=center;verticalAlign=middle;resizable=0;points=[];autosize=1;strokeColor=none;fillColor=none;fontColor=#FFFFFF;" vertex="1" parent="1">
                    <mxGeometry x="115" y="260" width="170" height="20" as="geometry"/>
                </mxCell>
                <mxCell id="68" value="无形资产" style="text;html=1;align=center;verticalAlign=middle;resizable=0;points=[];autosize=1;strokeColor=none;fillColor=none;fontColor=#FFFFFF;" vertex="1" parent="1">
                    <mxGeometry x="170" y="290" width="60" height="20" as="geometry"/>
                </mxCell>
                <mxCell id="69" value="非流动" style="text;html=1;align=center;verticalAlign=middle;resizable=0;points=[];autosize=1;fontColor=#990000;fontStyle=1" vertex="1" parent="1">
                    <mxGeometry x="245" y="320" width="50" height="20" as="geometry"/>
                </mxCell>
                <mxCell id="70" value="短期借款" style="text;html=1;align=center;verticalAlign=middle;resizable=0;points=[];autosize=1;strokeColor=none;fillColor=none;fontColor=#FFFFFF;" vertex="1" parent="1">
                    <mxGeometry x="370" y="110" width="60" height="20" as="geometry"/>
                </mxCell>
                <mxCell id="71" value="应付账款/票据" style="text;html=1;align=center;verticalAlign=middle;resizable=0;points=[];autosize=1;strokeColor=none;fillColor=none;fontColor=#FFFFFF;" vertex="1" parent="1">
                    <mxGeometry x="369" y="140" width="90" height="20" as="geometry"/>
                </mxCell>
                <mxCell id="72" value="流动" style="text;html=1;align=center;verticalAlign=middle;resizable=0;points=[];autosize=1;fontColor=#990000;fontStyle=1" vertex="1" parent="1">
                    <mxGeometry x="340" y="160" width="40" height="20" as="geometry"/>
                </mxCell>
                <mxCell id="73" value="" style="endArrow=none;dashed=1;html=1;" edge="1" parent="1">
                    <mxGeometry width="50" height="50" relative="1" as="geometry">
                        <mxPoint x="320" y="179" as="sourcePoint"/>
                        <mxPoint x="520" y="179" as="targetPoint"/>
                    </mxGeometry>
                </mxCell>
                <mxCell id="76" value="" style="endArrow=none;html=1;fontColor=#FFFFFF;" edge="1" parent="1">
                    <mxGeometry width="50" height="50" relative="1" as="geometry">
                        <mxPoint x="320" y="240" as="sourcePoint"/>
                        <mxPoint x="520" y="240" as="targetPoint"/>
                    </mxGeometry>
                </mxCell>
                <mxCell id="77" value="股东投入" style="text;html=1;align=center;verticalAlign=middle;resizable=0;points=[];autosize=1;strokeColor=none;fillColor=none;fontColor=#FFFFFF;" vertex="1" parent="1">
                    <mxGeometry x="380" y="260" width="60" height="20" as="geometry"/>
                </mxCell>
                <mxCell id="78" value="盈利沉淀" style="text;html=1;align=center;verticalAlign=middle;resizable=0;points=[];autosize=1;strokeColor=none;fillColor=none;fontColor=#FFFFFF;" vertex="1" parent="1">
                    <mxGeometry x="380" y="290" width="60" height="20" as="geometry"/>
                </mxCell>
                <mxCell id="79" value="" style="endArrow=none;html=1;" edge="1" parent="1">
                    <mxGeometry width="50" height="50" relative="1" as="geometry">
                        <mxPoint x="120" y="360" as="sourcePoint"/>
                        <mxPoint x="520" y="360" as="targetPoint"/>
                    </mxGeometry>
                </mxCell>
                <mxCell id="80" value="非流动" style="text;html=1;align=center;verticalAlign=middle;resizable=0;points=[];autosize=1;fontColor=#990000;fontStyle=1" vertex="1" parent="1">
                    <mxGeometry x="335" y="220" width="50" height="20" as="geometry"/>
                </mxCell>
                <mxCell id="82" value="动力（总经理）：公司治理" style="text;html=1;align=center;verticalAlign=middle;resizable=0;points=[];autosize=1;fontColor=#0066CC;fontStyle=1" vertex="1" parent="1">
                    <mxGeometry x="355" y="200" width="160" height="20" as="geometry"/>
                </mxCell>
                <mxCell id="85" value="活力（COO）：经营性风险" style="text;html=1;align=center;verticalAlign=middle;resizable=0;points=[];autosize=1;fontColor=#0066CC;fontStyle=1" vertex="1" parent="1">
                    <mxGeometry x="242.5" y="90" width="160" height="20" as="geometry"/>
                </mxCell>
                <mxCell id="86" value="" style="endArrow=none;html=1;" edge="1" parent="1">
                    <mxGeometry width="50" height="50" relative="1" as="geometry">
                        <mxPoint x="120" y="80" as="sourcePoint"/>
                        <mxPoint x="520" y="80" as="targetPoint"/>
                    </mxGeometry>
                </mxCell>
                <mxCell id="88" value="潜力（长期不死）" style="text;html=1;align=center;verticalAlign=middle;resizable=0;points=[];autosize=1;fontColor=#0066CC;fontStyle=1" vertex="1" parent="1">
                    <mxGeometry x="70" y="290" width="110" height="20" as="geometry"/>
                </mxCell>
                <mxCell id="91" value="投资" style="text;html=1;align=center;verticalAlign=middle;resizable=0;points=[];autosize=1;strokeColor=none;fillColor=none;fontColor=#0066CC;" vertex="1" parent="1">
                    <mxGeometry x="110" y="180" width="40" height="20" as="geometry"/>
                </mxCell>
                <mxCell id="92" value="&lt;meta charset=&quot;utf-8&quot;&gt;&lt;div style=&quot;color: rgb(171, 178, 191); background-color: rgb(40, 44, 52); font-family: menlo, monaco, &amp;quot;courier new&amp;quot;, monospace; font-weight: normal; font-size: 12px; line-height: 18px;&quot;&gt;&lt;div&gt;&lt;span style=&quot;color: #abb2bf&quot;&gt;资产负债表主要看这几个方面&lt;/span&gt;&lt;/div&gt;&lt;/div&gt;" style="text;whiteSpace=wrap;html=1;fontColor=#0066CC;" vertex="1" parent="1">
                    <mxGeometry x="234" y="20" width="180" height="30" as="geometry"/>
                </mxCell>
            </root>
        </mxGraphModel>
    </diagram>
</mxfile>